PathFileType	4	(X/Y/Z)	C:/Users/beibeiliu/ov580/test_trc/User2\sequence.37_training_dense_right.trc
DataRate	CameraRate	NumFrames	NumMarkers	Units	OrigDataRate	OrigDataStartFrame	OrigNumFrames
120	120	14	19	mm	120	188	500
Frame#	Time	ThumbCMC			ThumbMCP			ThumbIP			ThumbTip			IndexMCP			IndexPIP			IndexTip			MiddleMCP			MiddlePIP			MiddleTip			RingMCP			RingPIP			RingTip			PinkyMCP			PinkyPIP			PinkyTip			BackHand1			BackHand2			BackHand3	
		X0	Y0	Z0	X1	Y1	Z1	X2	Y2	Z2	X3	Y3	Z3	X4	Y4	Z4	X5	Y5	Z5	X6	Y6	Z6	X7	Y7	Z7	X8	Y8	Z8	X9	Y9	Z9	X10	Y10	Z10	X11	Y11	Z11	X12	Y12	Z12	X13	Y13	Z13	X14	Y14	Z14	X15	Y15	Z15	X16	Y16	Z16	X17	Y17	Z17	X18	Y18	Z18	
187	1.55833	95.2044	3.62136	66.0866	64.5022	11.2696	41.669	35.6096	9.95363	21.2498	12.465	-2.56169	9.95916	72.8011	-41.9087	-1.36212	45.4138	-36.141	-26.0034	16.5929	-25.1662	-23.8703	55.5297	-58.0251	3.57331	21.8308	-44.7917	-13.4622	-3.44004	-19.783	-0.778937	40.2195	-69.0977	15.6381	16.4946	-57.4545	4.2271	-4.15842	-26.363	11.9681	30.2181	-77.6107	40.4043	4.46846	-66.8737	24.3678	-13.0765	-43.5792	17.9142	82.5734	-68.3632	67.9827	98.0282	-60.9198	93.5759	108.54	-38.297	61.0196	
188	1.56667	94.643	2.16188	66.2294	65.3705	15.8826	41.1637	35.2641	7.28195	19.3759	12.4382	-2.43512	9.89049	71.8865	-41.9227	-4.14941	43.7245	-38.7571	-22.7586	15.9064	-26.4966	-23.3754	53.3206	-59.1857	1.48032	21.039	-51.6022	-9.06969	-5.04771	-19.6762	1.00175	40.5105	-68.5774	17.8266	12.6776	-59.4422	6.52562	-6.6574	-28.6715	13.8985	32.8494	-74.6929	42.3542	5.64082	-65.8702	24.0913	-12.8428	-41.9505	18.1168	80.9007	-66.5013	70.3709	97.722	-60.6868	93.0206	108.162	-41.4285	66.8878	
189	1.575	94.5126	3.59976	61.2495	65.0262	13.0974	38.3294	34.0828	9.0617	16.4833	12.6498	-4.21974	10.4805	71.421	-42.3191	-0.455509	43.6718	-39.0678	-23.798	17.3265	-25.3791	-25.4872	51.7348	-60.3861	3.20052	18.1108	-46.6375	-11.9089	-4.63452	-21.0438	-1.79363	36.3582	-69.6176	17.5785	11.6982	-57.2374	6.20303	-7.69647	-30.6807	15.3361	29.6565	-76.3931	48.2717	4.42847	-64.6965	25.9353	-12.1309	-44.1556	21.9437	79.4476	-68.6766	70.5951	97.4726	-59.7331	96.0057	107.796	-39.0094	64.0339	
190	1.58333	96.202	2.90561	65.1427	66.3993	12.2504	38.9966	37.5326	11.4642	18.9334	12.9142	-3.26378	8.99027	69.1879	-43.7277	-2.10269	43.1096	-41.4623	-21.9887	13.1092	-27.1456	-24.7965	51.0733	-60.9434	7.80282	14.7367	-48.9056	-7.76127	-8.1748	-20.0527	2.90528	33.8004	-69.3797	19.4926	9.68257	-58.2023	8.51199	-9.83083	-26.4907	15.4483	30.7416	-73.4128	47.8316	2.88465	-65.9662	28.8612	-14.7881	-43.652	24.4117	75.326	-68.8226	69.9159	96.244	-59.2575	99.1385	107.509	-39.618	63.5766	
191	1.59167	93.9132	-1.21301	61.6636	69.1548	11.7202	42.908	37.526	11.2422	15.5378	15.7044	3.15306	8.40088	63.3712	-47.5703	-0.614447	41.0756	-44.0119	-19.6122	15.203	-29.9156	-25.1535	44.3926	-62.6611	6.5863	14.6664	-51.2876	-6.1069	-7.53016	-19.8561	1.88428	33.7472	-71.4683	25.481	8.16848	-57.713	10.0214	-8.13265	-26.6275	14.5875	24.8226	-75.8082	50.0795	-2.22925	-65.7519	33.2375	-15.3333	-38.3361	24.4039	78.0908	-67.7203	69.7432	94.9475	-58.577	97.9214	102.021	-43.6815	63.6999	
192	1.6	96.1216	-0.710332	61.5572	69.8397	14.4765	38.3605	40.9201	8.92409	17.3202	17.4903	3.88914	7.65062	66.0453	-45.6161	-0.383758	40.85	-46.8253	-15.8636	10.1482	-29.5332	-23.4025	43.8779	-63.4977	8.84051	13.507	-48.7264	-5.8675	-7.89458	-18.3516	1.43324	30.6618	-69.3176	22.6068	4.88769	-58.9314	13.2816	-8.26823	-22.8454	15.5706	24.6141	-72.1845	47.7533	-3.48229	-62.6099	32.9552	-18.8975	-38.9501	29.5497	74.3482	-67.0601	72.0088	92.8025	-59.929	95.607	105.847	-42.4436	66.9286	
193	1.60833	97.0648	-1.54459	66.1261	69.8762	11.5129	37.075	44.3672	14.2173	19.239	18.6741	4.56962	7.03897	66.2435	-46.4964	3.42619	40.8549	-45.6903	-17.1035	10.9961	-27.8525	-23.6418	43.9081	-61.2267	7.94424	15.7124	-49.9259	-5.68471	-5.74431	-18.602	2.75313	31.6769	-69.8333	28.4097	5.09889	-53.7381	12.1671	-9.13261	-20.7839	18.2135	21.5791	-72.8463	54.6341	-6.59811	-59.4833	34.7556	-19.0375	-32.1044	32.5918	71.3733	-71.1412	71.4772	91.3927	-62.999	101.912	104.427	-43.6527	68.3103	
194	1.61667	98.3034	-0.58599	63.0205	72.4042	12.9007	36.9732	44.329	12.9188	15.1309	20.828	5.20228	8.00571	60.4857	-49.6662	2.46783	36.4907	-45.489	-17.0532	8.85116	-31.2445	-18.3586	40.1387	-63.2691	9.16851	9.33302	-48.8201	-1.99609	-7.47803	-16.1664	7.35938	27.864	-68.3023	27.7889	1.97844	-54.808	16.5677	-10.2748	-22.9581	22.9901	20.956	-69.6596	48.8351	-5.33853	-58.9366	38.3101	-14.0234	-30.5187	32.3676	70.3806	-67.8851	70.9701	91.1756	-62.9787	99.4106	103.202	-45.1977	64.6249	
195	1.625	96.3966	-4.9336	61.8299	72.0206	8.59805	37.223	46.2481	11.8161	17.6961	21.7086	2.27439	9.27399	58.5421	-49.0875	2.12263	34.4315	-44.3041	-17.3368	6.85839	-22.7056	-19.6061	40.6636	-60.4841	8.1392	8.99669	-44.3905	-2.24094	-7.44957	-15.1252	12.9477	23.7115	-67.8044	28.8898	0.495911	-52.8704	17.8705	-7.90077	-18.0762	26.0885	17.8496	-69.9963	51.0833	-7.98011	-56.0839	39.9662	-13.6799	-23.0331	34.2101	71.8739	-65.2059	72.9196	88.6886	-61.7341	99.8996	100.792	-45.7164	67.1638	
196	1.63333	97.4076	-5.63916	62.3406	73.3711	6.48431	36.2767	47.2638	9.18287	16.5855	22.3759	3.98339	4.87408	56.8278	-50.5442	0.868307	31.4442	-43.2015	-14.8525	7.25731	-19.6938	-14.9297	35.829	-60.6421	9.59141	5.78324	-42.0334	0.274192	-4.22427	-6.53244	17.9166	24.4622	-66.6476	27.8309	-2.99887	-49.9614	19.6704	-7.01759	-16.0746	30.564	18.3315	-66.8817	51.957	-10.2417	-48.8318	39.2286	-17.2252	-22.2306	39.4982	66.4896	-71.9037	73.9425	87.533	-62.3009	103.638	98.2685	-48.3473	66.7407	
197	1.64167	98.9361	-7.29538	62.8267	75.4897	5.24626	32.5036	49.0819	7.35384	11.5051	25.1372	2.8474	6.65764	55.4536	-50.8602	3.92394	26.0138	-41.1927	-12.6411	6.66547	-18.9585	-6.75695	38.441	-60.5634	12.1915	7.90477	-42.3902	0.530148	-0.813656	-4.38189	22.2515	23.1272	-65.0642	28.3649	-4.1373	-45.8702	21.2621	-2.7693	-13.7318	29.6472	14.4057	-68.2571	56.9519	-10.0136	-46.226	39.8083	-9.36666	-17.8039	41.2526	64.7434	-69.2536	73.5932	88.8515	-60.6147	102.259	100.669	-49.799	64.6517	
198	1.65	98.7344	-9.82895	61.9095	79.3008	4.72842	36.6329	50.9929	6.64062	11.7617	23.1686	1.00191	1.32905	56.7882	-51.7641	4.18282	24.6287	-42.0196	-10.3185	6.82635	-11.7275	-6.2326	32.2484	-62.9875	14.7721	6.5754	-38.1396	0.815196	1.70098	-3.96127	20.7938	19.9104	-65.5996	32.1936	-4.31165	-43.1996	20.9011	0.0174825	-13.1419	30.8867	12.6634	-67.1373	55.18	-11.4425	-44.7315	41.6931	-10.6956	-16.952	43.263	65.028	-68.9205	76.3058	86.5059	-63.9235	98.2385	97.3746	-51.4561	67.8962	
199	1.65833	96.9865	-12.2937	58.198	77.243	3.38734	29.9402	49.1564	3.1918	10.6247	24.6092	-0.654099	4.21031	50.2013	-53.6086	4.45501	27.378	-42.5699	-12.755	7.71681	-15.9989	-4.39787	31.4237	-63.1491	13.142	6.51315	-40.8294	2.15859	3.01371	-5.01717	25.621	18.0769	-65.4102	32.3211	-2.70777	-42.3056	20.4565	0.701531	-9.65309	36.6103	12.3752	-66.8396	58.436	-11.6656	-43.7813	41.3956	-7.47997	-14.3761	44.0069	61.3203	-71.7795	75.4325	86.0988	-63.1279	102.03	100.476	-51.7243	64.2192	
200	1.66667	98.4262	-11.723	59.4153	80.2238	3.89366	34.0777	50.0257	3.96226	9.71405	25.0256	0.0488713	2.50361	53.3841	-53.9728	4.01437	24.0063	-43.4108	-11.2998	7.71517	-15.7554	-3.98921	29.1601	-63.4159	14.2584	3.43725	-41.6034	4.89891	2.40915	-5.88612	25.1326	15.8836	-66.1149	32.5587	-5.95519	-41.9994	24.6203	0.894489	-8.45952	39.6213	10.257	-67.5601	58.626	-10.2645	-42.647	41.1047	-6.85532	-12.5001	45.3579	65.5621	-70.7726	73.4104	85.0632	-64.2951	104.961	96.9387	-54.0175	65.532	
